<?xml version="1.0" encoding="utf-8"?>
<!-- Generator: Adobe Illustrator 23.0.1, SVG Export Plug-In . SVG Version: 6.00 Build 0)  -->
<svg version="1.1" id="Camada_1" xmlns="http://www.w3.org/2000/svg" xmlns:xlink="http://www.w3.org/1999/xlink" x="0px" y="0px"
	 viewBox="0 0 956 540" style="enable-background:new 0 0 956 540;" xml:space="preserve">
<style type="text/css">
	.st0{clip-path:url(#SVGID_2_);}
	.st1{fill:#580887;}
	.st2{fill:url(#SVGID_3_);}
	.st3{fill:url(#SVGID_4_);}
	.st4{fill:url(#SVGID_5_);}
	.st5{fill:none;stroke:url(#SVGID_6_);stroke-width:33;stroke-miterlimit:10;}
	.st6{fill:url(#SVGID_7_);}
	.st7{fill:url(#SVGID_8_);}
	.st8{fill:url(#SVGID_9_);}
	.st9{fill:url(#SVGID_10_);}
</style>
<g>
	<defs>
		<rect id="SVGID_1_" width="956" height="540"/>
	</defs>
	<clipPath id="SVGID_2_">
		<use xlink:href="#SVGID_1_"  style="overflow:visible;"/>
	</clipPath>
	<g class="st0">
		<g>
			<g>
				<g>
					<g>
						<path class="st1" d="M645.81,437.71h-54.14v-82.29c0-7.23-1.67-12.46-4.99-15.71c-3.33-3.24-7.46-4.87-12.4-4.87
							c-2.28,0-5.08,0.81-8.41,2.43c-3.33,1.62-6.51,3.95-9.55,7.01c-3.04,3.05-5.41,6.65-7.12,10.78v82.65h-54.14V229.69h54.14
							v82.5c5.32-8.03,12.3-14.15,20.94-18.35c8.64-4.2,18.19-6.3,28.64-6.3c10.64,0,19.09,1.73,25.36,5.18
							c6.27,3.46,10.92,7.89,13.96,13.31c3.04,5.42,5.08,11.21,6.13,17.37c1.04,6.16,1.57,11.95,1.57,17.37V437.71z"/>
						<path class="st1" d="M663.76,393.23c0-9.89,2.75-18.62,8.26-26.18c5.51-7.56,13.15-13.49,22.94-17.78
							c9.78-4.29,20.94-6.44,33.48-6.44c5.89,0,11.44,0.48,16.67,1.42c5.22,0.95,9.73,2.38,13.54,4.27v-4.56
							c0-6.75-2.04-11.77-6.13-15.04c-4.09-3.27-10.69-4.91-19.8-4.91c-8.36,0-16.2,1.38-23.51,4.13
							c-7.32,2.76-14.96,6.79-22.94,12.11l-15.67-33.63c10.07-6.46,20.66-11.26,31.77-14.39s23.03-4.7,35.76-4.7
							c23.75,0,42.13,5.24,55.14,15.72c13.01,10.48,19.52,26.01,19.52,46.59v28.37c0,5,0.76,8.48,2.28,10.43
							c1.52,1.95,4.18,3.11,7.98,3.48v45.59c-4.37,0.95-8.5,1.66-12.4,2.14c-3.9,0.47-7.37,0.71-10.4,0.71
							c-9.69,0-17.05-1.76-22.08-5.27c-5.04-3.51-8.31-8.69-9.83-15.53l-1.14-5.41c-6.65,8.55-14.35,15.06-23.08,19.52
							c-8.74,4.46-18.05,6.7-27.93,6.7c-9.88,0-18.81-2.06-26.79-6.16s-14.25-9.76-18.81-16.94
							C666.04,410.27,663.76,402.2,663.76,393.23z M751.52,396.42c2.09-1.43,3.8-3.01,5.13-4.72c1.33-1.71,2-3.46,2-5.25v-10.51
							c-3.04-1.08-6.51-1.97-10.4-2.69c-3.9-0.72-7.36-1.08-10.4-1.08c-6.46,0-11.92,1.53-16.38,4.58c-4.47,3.05-6.7,6.92-6.7,11.59
							c0,2.52,0.76,4.8,2.28,6.87c1.52,2.07,3.61,3.68,6.27,4.85c2.66,1.17,5.7,1.75,9.12,1.75c3.23,0,6.6-0.5,10.12-1.48
							C746.06,399.34,749.05,398.04,751.52,396.42z"/>
						<path class="st1" d="M947.86,429.16c-4.94,2.09-10.21,4.04-15.81,5.84c-5.61,1.81-11.3,3.18-17.1,4.13
							c-5.8,0.95-11.45,1.42-16.96,1.42c-8.17,0-15.67-1.35-22.51-4.05c-6.84-2.7-12.3-7.16-16.38-13.4
							c-4.09-6.23-6.13-14.66-6.13-25.27v-67.28h-18.52v-40.75h18.52V242.8h54.14v47.02h29.35v40.75h-29.35v47.79
							c0,4.76,1.04,8.1,3.13,10.03c2.09,1.92,4.94,2.88,8.55,2.88c2.66,0,5.7-0.47,9.12-1.42c3.42-0.95,6.84-2.09,10.26-3.42
							L947.86,429.16z"/>
					</g>
				</g>
				<g>
					<linearGradient id="SVGID_3_" gradientUnits="userSpaceOnUse" x1="721.4619" y1="440.5625" x2="721.4619" y2="229.6934">
						<stop  offset="0" style="stop-color:#6F00A2"/>
						<stop  offset="0.1741" style="stop-color:#7100B3;stop-opacity:0.8259"/>
						<stop  offset="0.455" style="stop-color:#7400C7;stop-opacity:0.545"/>
						<stop  offset="0.7324" style="stop-color:#7500D4;stop-opacity:0.2676"/>
						<stop  offset="1" style="stop-color:#7600D8;stop-opacity:0"/>
					</linearGradient>
					<path class="st2" d="M645.81,437.71h-54.14v-82.29c0-7.23-1.67-12.46-4.99-15.71c-3.33-3.24-7.46-4.87-12.4-4.87
						c-2.28,0-5.08,0.81-8.41,2.43c-3.33,1.62-6.51,3.95-9.55,7.01c-3.04,3.05-5.41,6.65-7.12,10.78v82.65h-54.14V229.69h54.14v82.5
						c5.32-8.03,12.3-14.15,20.94-18.35c8.64-4.2,18.19-6.3,28.64-6.3c10.64,0,19.09,1.73,25.36,5.18
						c6.27,3.46,10.92,7.89,13.96,13.31c3.04,5.42,5.08,11.21,6.13,17.37c1.04,6.16,1.57,11.95,1.57,17.37V437.71z"/>
					<linearGradient id="SVGID_4_" gradientUnits="userSpaceOnUse" x1="721.4619" y1="440.5625" x2="721.4619" y2="229.6934">
						<stop  offset="0" style="stop-color:#6F00A2"/>
						<stop  offset="0.1741" style="stop-color:#7100B3;stop-opacity:0.8259"/>
						<stop  offset="0.455" style="stop-color:#7400C7;stop-opacity:0.545"/>
						<stop  offset="0.7324" style="stop-color:#7500D4;stop-opacity:0.2676"/>
						<stop  offset="1" style="stop-color:#7600D8;stop-opacity:0"/>
					</linearGradient>
					<path class="st3" d="M663.76,393.23c0-9.89,2.75-18.62,8.26-26.18c5.51-7.56,13.15-13.49,22.94-17.78
						c9.78-4.29,20.94-6.44,33.48-6.44c5.89,0,11.44,0.48,16.67,1.42c5.22,0.95,9.73,2.38,13.54,4.27v-4.56
						c0-6.75-2.04-11.77-6.13-15.04c-4.09-3.27-10.69-4.91-19.8-4.91c-8.36,0-16.2,1.38-23.51,4.13
						c-7.32,2.76-14.96,6.79-22.94,12.11l-15.67-33.63c10.07-6.46,20.66-11.26,31.77-14.39s23.03-4.7,35.76-4.7
						c23.75,0,42.13,5.24,55.14,15.72c13.01,10.48,19.52,26.01,19.52,46.59v28.37c0,5,0.76,8.48,2.28,10.43
						c1.52,1.95,4.18,3.11,7.98,3.48v45.59c-4.37,0.95-8.5,1.66-12.4,2.14c-3.9,0.47-7.37,0.71-10.4,0.71
						c-9.69,0-17.05-1.76-22.08-5.27c-5.04-3.51-8.31-8.69-9.83-15.53l-1.14-5.41c-6.65,8.55-14.35,15.06-23.08,19.52
						c-8.74,4.46-18.05,6.7-27.93,6.7c-9.88,0-18.81-2.06-26.79-6.16s-14.25-9.76-18.81-16.94
						C666.04,410.27,663.76,402.2,663.76,393.23z M751.52,396.42c2.09-1.43,3.8-3.01,5.13-4.72c1.33-1.71,2-3.46,2-5.25v-10.51
						c-3.04-1.08-6.51-1.97-10.4-2.69c-3.9-0.72-7.36-1.08-10.4-1.08c-6.46,0-11.92,1.53-16.38,4.58c-4.47,3.05-6.7,6.92-6.7,11.59
						c0,2.52,0.76,4.8,2.28,6.87c1.52,2.07,3.61,3.68,6.27,4.85c2.66,1.17,5.7,1.75,9.12,1.75c3.23,0,6.6-0.5,10.12-1.48
						C746.06,399.34,749.05,398.04,751.52,396.42z"/>
					<linearGradient id="SVGID_5_" gradientUnits="userSpaceOnUse" x1="721.4619" y1="440.5625" x2="721.4619" y2="229.6934">
						<stop  offset="0" style="stop-color:#6F00A2"/>
						<stop  offset="0.1741" style="stop-color:#7100B3;stop-opacity:0.8259"/>
						<stop  offset="0.455" style="stop-color:#7400C7;stop-opacity:0.545"/>
						<stop  offset="0.7324" style="stop-color:#7500D4;stop-opacity:0.2676"/>
						<stop  offset="1" style="stop-color:#7600D8;stop-opacity:0"/>
					</linearGradient>
					<path class="st4" d="M947.86,429.16c-4.94,2.09-10.21,4.04-15.81,5.84c-5.61,1.81-11.3,3.18-17.1,4.13
						c-5.8,0.95-11.45,1.42-16.96,1.42c-8.17,0-15.67-1.35-22.51-4.05c-6.84-2.7-12.3-7.16-16.38-13.4
						c-4.09-6.23-6.13-14.66-6.13-25.27v-67.28h-18.52v-40.75h18.52V242.8h54.14v47.02h29.35v40.75h-29.35v47.79
						c0,4.76,1.04,8.1,3.13,10.03c2.09,1.92,4.94,2.88,8.55,2.88c2.66,0,5.7-0.47,9.12-1.42c3.42-0.95,6.84-2.09,10.26-3.42
						L947.86,429.16z"/>
				</g>
			</g>
			<linearGradient id="SVGID_6_" gradientUnits="userSpaceOnUse" x1="206.1931" y1="373.898" x2="530.5173" y2="373.898">
				<stop  offset="0" style="stop-color:#7600D8"/>
				<stop  offset="0.8681" style="stop-color:#7600D8;stop-opacity:0.1319"/>
				<stop  offset="1" style="stop-color:#7600D8;stop-opacity:0"/>
			</linearGradient>
			<path class="st5" d="M514.02,221.82v224.7l-58.11,62.53l-7.59-59c-125.33-2.09-225.62-53.15-225.62-115.88
				c0-64.04,104.55-115.94,233.55-115.94C476.18,218.23,495.54,219.46,514.02,221.82z"/>
			<g>
				<g>
					<g>
						<path class="st1" d="M163.61,30.06v168.6h-46.31v-66.02H60.79v66.02H14.49V30.06h46.31v62.22h56.52V30.06H163.61z"/>
						<path class="st1" d="M251,201.04c-10.92,0-20.66-1.68-29.21-5.03c-8.55-3.35-15.71-7.91-21.49-13.68
							c-5.78-5.77-10.17-12.39-13.18-19.88c-3.01-7.48-4.51-15.36-4.51-23.62c0-11.81,2.61-22.66,7.84-32.53s12.9-17.8,23.03-23.79
							c10.13-5.98,22.64-8.98,37.52-8.98c14.88,0,27.39,2.96,37.52,8.89c10.13,5.93,17.81,13.72,23.03,23.39
							c5.22,9.67,7.84,20.19,7.84,31.57c0,2.34-0.12,4.72-0.36,7.14c-0.24,2.42-0.52,4.56-0.83,6.43h-87.62
							c0.32,4.21,1.54,7.63,3.68,10.26c2.14,2.63,4.83,4.54,8.07,5.75c3.24,1.2,6.61,1.8,10.09,1.8c4.91,0,9.54-1.11,13.89-3.32
							c4.35-2.22,7.24-5.3,8.67-9.26l38.23,10.92c-3.32,6.65-7.96,12.51-13.89,17.57c-5.94,5.07-12.94,9.06-21.02,11.99
							C270.24,199.57,261.13,201.04,251,201.04z M229.63,123.86h41.32c-0.48-3.87-1.63-7.13-3.44-9.81
							c-1.82-2.68-4.2-4.76-7.12-6.24c-2.93-1.48-6.29-2.23-10.09-2.23s-7.17,0.75-10.09,2.23c-2.93,1.49-5.31,3.57-7.12,6.24
							C231.25,116.73,230.1,119.99,229.63,123.86z"/>
						<path class="st1" d="M333.16,25.31h45.12v123.72c0,4.59,0.99,8.11,2.97,10.57c1.98,2.46,4.87,3.68,8.67,3.68
							c1.9,0,3.96-0.32,6.17-0.95c2.21-0.63,4.27-1.5,6.17-2.61l5.7,33.25c-5.38,2.53-11.44,4.51-18.17,5.94
							c-6.73,1.42-13.1,2.14-19.12,2.14c-12.03,0-21.29-3.12-27.78-9.38c-6.49-6.25-9.74-15.16-9.74-26.71V25.31z"/>
						<path class="st1" d="M502.47,201.04c-9.02,0-16.86-1.75-23.51-5.25c-6.65-3.5-11.8-8.6-15.44-15.3v68.76h-45.12V75.42h39.18
							V94.3c4.43-6.69,9.93-11.83,16.5-15.41c6.57-3.58,14.52-5.37,23.87-5.37c8.39,0,16.07,1.56,23.03,4.67
							c6.96,3.12,13.06,7.55,18.29,13.31c5.22,5.76,9.26,12.46,12.11,20.08c2.85,7.63,4.27,16.04,4.27,25.22
							c0,12.3-2.3,23.28-6.89,32.93c-4.59,9.65-10.89,17.28-18.88,22.89C521.91,198.24,512.76,201.04,502.47,201.04z M486.8,163.04
							c3.33,0,6.37-0.68,9.14-2.05c2.77-1.37,5.18-3.27,7.24-5.7c2.05-2.43,3.64-5.25,4.75-8.44c1.11-3.19,1.66-6.61,1.66-10.26
							c0-3.8-0.59-7.22-1.78-10.26c-1.19-3.04-2.89-5.66-5.11-7.87c-2.22-2.2-4.83-3.91-7.84-5.13c-3.01-1.22-6.33-1.83-9.97-1.83
							c-2.06,0-4.08,0.26-6.06,0.78c-1.98,0.52-3.84,1.26-5.58,2.22c-1.74,0.96-3.44,2.18-5.11,3.66s-3.21,3.25-4.63,5.32v21.25
							c1.42,3.47,3.36,6.59,5.82,9.37c2.45,2.79,5.18,4.97,8.19,6.55C480.54,162.25,483.63,163.04,486.8,163.04z"/>
					</g>
				</g>
				<g>
					<linearGradient id="SVGID_7_" gradientUnits="userSpaceOnUse" x1="285.0757" y1="25.3125" x2="285.0757" y2="249.2422">
						<stop  offset="0" style="stop-color:#6F00A2"/>
						<stop  offset="0.2063" style="stop-color:#7100B0;stop-opacity:0.7937"/>
						<stop  offset="0.7115" style="stop-color:#7500CD;stop-opacity:0.2885"/>
						<stop  offset="1" style="stop-color:#7600D8;stop-opacity:0"/>
					</linearGradient>
					<path class="st6" d="M163.61,30.06v168.6h-46.31v-66.02H60.79v66.02H14.49V30.06h46.31v62.22h56.52V30.06H163.61z"/>
					<linearGradient id="SVGID_8_" gradientUnits="userSpaceOnUse" x1="285.0757" y1="25.3125" x2="285.0757" y2="249.2422">
						<stop  offset="0" style="stop-color:#6F00A2"/>
						<stop  offset="0.2063" style="stop-color:#7100B0;stop-opacity:0.7937"/>
						<stop  offset="0.7115" style="stop-color:#7500CD;stop-opacity:0.2885"/>
						<stop  offset="1" style="stop-color:#7600D8;stop-opacity:0"/>
					</linearGradient>
					<path class="st7" d="M251,201.04c-10.92,0-20.66-1.68-29.21-5.03c-8.55-3.35-15.71-7.91-21.49-13.68
						c-5.78-5.77-10.17-12.39-13.18-19.88c-3.01-7.48-4.51-15.36-4.51-23.62c0-11.81,2.61-22.66,7.84-32.53s12.9-17.8,23.03-23.79
						c10.13-5.98,22.64-8.98,37.52-8.98c14.88,0,27.39,2.96,37.52,8.89c10.13,5.93,17.81,13.72,23.03,23.39
						c5.22,9.67,7.84,20.19,7.84,31.57c0,2.34-0.12,4.72-0.36,7.14c-0.24,2.42-0.52,4.56-0.83,6.43h-87.62
						c0.32,4.21,1.54,7.63,3.68,10.26c2.14,2.63,4.83,4.54,8.07,5.75c3.24,1.2,6.61,1.8,10.09,1.8c4.91,0,9.54-1.11,13.89-3.32
						c4.35-2.22,7.24-5.3,8.67-9.26l38.23,10.92c-3.32,6.65-7.96,12.51-13.89,17.57c-5.94,5.07-12.94,9.06-21.02,11.99
						C270.24,199.57,261.13,201.04,251,201.04z M229.63,123.86h41.32c-0.48-3.87-1.63-7.13-3.44-9.81c-1.82-2.68-4.2-4.76-7.12-6.24
						c-2.93-1.48-6.29-2.23-10.09-2.23s-7.17,0.75-10.09,2.23c-2.93,1.49-5.31,3.57-7.12,6.24
						C231.25,116.73,230.1,119.99,229.63,123.86z"/>
					<linearGradient id="SVGID_9_" gradientUnits="userSpaceOnUse" x1="285.0757" y1="25.3125" x2="285.0757" y2="249.2422">
						<stop  offset="0" style="stop-color:#6F00A2"/>
						<stop  offset="0.2063" style="stop-color:#7100B0;stop-opacity:0.7937"/>
						<stop  offset="0.7115" style="stop-color:#7500CD;stop-opacity:0.2885"/>
						<stop  offset="1" style="stop-color:#7600D8;stop-opacity:0"/>
					</linearGradient>
					<path class="st8" d="M333.16,25.31h45.12v123.72c0,4.59,0.99,8.11,2.97,10.57c1.98,2.46,4.87,3.68,8.67,3.68
						c1.9,0,3.96-0.32,6.17-0.95c2.21-0.63,4.27-1.5,6.17-2.61l5.7,33.25c-5.38,2.53-11.44,4.51-18.17,5.94
						c-6.73,1.42-13.1,2.14-19.12,2.14c-12.03,0-21.29-3.12-27.78-9.38c-6.49-6.25-9.74-15.16-9.74-26.71V25.31z"/>
					<linearGradient id="SVGID_10_" gradientUnits="userSpaceOnUse" x1="285.0757" y1="25.3125" x2="285.0757" y2="249.2422">
						<stop  offset="0" style="stop-color:#6F00A2"/>
						<stop  offset="0.2063" style="stop-color:#7100B0;stop-opacity:0.7937"/>
						<stop  offset="0.7115" style="stop-color:#7500CD;stop-opacity:0.2885"/>
						<stop  offset="1" style="stop-color:#7600D8;stop-opacity:0"/>
					</linearGradient>
					<path class="st9" d="M502.47,201.04c-9.02,0-16.86-1.75-23.51-5.25c-6.65-3.5-11.8-8.6-15.44-15.3v68.76h-45.12V75.42h39.18
						V94.3c4.43-6.69,9.93-11.83,16.5-15.41c6.57-3.58,14.52-5.37,23.87-5.37c8.39,0,16.07,1.56,23.03,4.67
						c6.96,3.12,13.06,7.55,18.29,13.31c5.22,5.76,9.26,12.46,12.11,20.08c2.85,7.63,4.27,16.04,4.27,25.22
						c0,12.3-2.3,23.28-6.89,32.93c-4.59,9.65-10.89,17.28-18.88,22.89C521.91,198.24,512.76,201.04,502.47,201.04z M486.8,163.04
						c3.33,0,6.37-0.68,9.14-2.05c2.77-1.37,5.18-3.27,7.24-5.7c2.05-2.43,3.64-5.25,4.75-8.44c1.11-3.19,1.66-6.61,1.66-10.26
						c0-3.8-0.59-7.22-1.78-10.26c-1.19-3.04-2.89-5.66-5.11-7.87c-2.22-2.2-4.83-3.91-7.84-5.13c-3.01-1.22-6.33-1.83-9.97-1.83
						c-2.06,0-4.08,0.26-6.06,0.78c-1.98,0.52-3.84,1.26-5.58,2.22c-1.74,0.96-3.44,2.18-5.11,3.66s-3.21,3.25-4.63,5.32v21.25
						c1.42,3.47,3.36,6.59,5.82,9.37c2.45,2.79,5.18,4.97,8.19,6.55C480.54,162.25,483.63,163.04,486.8,163.04z"/>
				</g>
			</g>
		</g>
	</g>
</g>
</svg>
